<mxfile host="65bd71144e">
    <diagram id="l0VLPy8wCRE0BURkgl07" name="第 1 页">
        <mxGraphModel dx="909" dy="670" grid="1" gridSize="10" guides="1" tooltips="1" connect="1" arrows="1" fold="1" page="1" pageScale="1" pageWidth="827" pageHeight="1169" math="0" shadow="0">
            <root>
                <mxCell id="0"/>
                <mxCell id="1" parent="0"/>
                <mxCell id="5" style="edgeStyle=none;html=1;exitX=1;exitY=0.5;exitDx=0;exitDy=0;entryX=0;entryY=0.5;entryDx=0;entryDy=0;sketch=1;" edge="1" parent="1" source="2" target="3">
                    <mxGeometry relative="1" as="geometry"/>
                </mxCell>
                <mxCell id="6" style="edgeStyle=none;sketch=1;html=1;exitX=1;exitY=0.5;exitDx=0;exitDy=0;entryX=0;entryY=0.5;entryDx=0;entryDy=0;" edge="1" parent="1" source="2" target="4">
                    <mxGeometry relative="1" as="geometry"/>
                </mxCell>
                <mxCell id="8" style="edgeStyle=none;sketch=1;html=1;exitX=1;exitY=0.5;exitDx=0;exitDy=0;entryX=0;entryY=0.5;entryDx=0;entryDy=0;" edge="1" parent="1" source="2" target="7">
                    <mxGeometry relative="1" as="geometry"/>
                </mxCell>
                <mxCell id="2" value="释放锁的情况" style="rounded=0;whiteSpace=wrap;html=1;fillColor=#ffe6cc;strokeColor=#d79b00;comic=1;" vertex="1" parent="1">
                    <mxGeometry x="40" y="90" width="100" height="40" as="geometry"/>
                </mxCell>
                <mxCell id="3" value="获取锁的线程执行完了该同步代码块" style="rounded=0;whiteSpace=wrap;html=1;fillColor=#ffe6cc;strokeColor=#d79b00;comic=1;sketch=1;" vertex="1" parent="1">
                    <mxGeometry x="200" y="50" width="210" height="30" as="geometry"/>
                </mxCell>
                <mxCell id="4" value="线程执行&lt;b&gt;发生异常&lt;/b&gt;，此时JVM会让线程自动释放锁" style="rounded=0;whiteSpace=wrap;html=1;fillColor=#ffe6cc;strokeColor=#d79b00;comic=1;sketch=1;align=left;" vertex="1" parent="1">
                    <mxGeometry x="200" y="90" width="210" height="40" as="geometry"/>
                </mxCell>
                <mxCell id="7" value="调用wait方法，在等待的时候立即释放锁" style="rounded=0;whiteSpace=wrap;html=1;fillColor=#ffe6cc;strokeColor=#d79b00;comic=1;sketch=1;align=left;" vertex="1" parent="1">
                    <mxGeometry x="200" y="140" width="230" height="30" as="geometry"/>
                </mxCell>
                <mxCell id="9" value="注意：调用Thread#suspend挂起线程是&lt;b&gt;不会释放锁&lt;/b&gt;的" style="rounded=0;whiteSpace=wrap;html=1;fillColor=#dae8fc;strokeColor=#6c8ebf;comic=1;sketch=1;" vertex="1" parent="1">
                    <mxGeometry x="440" y="90" width="160" height="40" as="geometry"/>
                </mxCell>
            </root>
        </mxGraphModel>
    </diagram>
</mxfile>